<?xml version="1.0" encoding="UTF-8"?>
<svg width="359px" height="65px" viewBox="0 0 359 65" version="1.1" xmlns="http://www.w3.org/2000/svg" xmlns:xlink="http://www.w3.org/1999/xlink">
    <!-- Generator: Sketch 41 (35326) - http://www.bohemiancoding.com/sketch -->
    <title>logo</title>
    <desc>Created with Sketch.</desc>
    <defs>
        <polygon id="path-1" points="0 64.8164 361.611 64.8164 361.611 0.0004 0 0.0004"></polygon>
    </defs>
    <g id="Styles" stroke="none" stroke-width="1" fill="none" fill-rule="evenodd">
        <g id="Desktop-HD-Copy" transform="translate(-222.000000, -338.000000)">
            <g id="nav-bar" transform="translate(0.000000, 331.000000)">
                <g id="logo" transform="translate(222.000000, 7.000000)">
                    <path d="M345.437,52.9727 C345.437,52.9727 348.945,41.4107 349.62,38.4777 C350.285,35.5397 351.289,32.7977 354.8,33.9747 C358.308,35.1457 360.822,44.7437 354.464,51.9917 C348.11,59.2357 345.437,52.9727 345.437,52.9727 Z" id="Fill-1" fill="#D19B54"></path>
                    <path d="M345.437,52.9727 C345.437,52.9727 348.945,41.4107 349.62,38.4777 C350.285,35.5397 351.289,32.7977 354.8,33.9747 C358.308,35.1457 360.822,44.7437 354.464,51.9917 C348.11,59.2357 345.437,52.9727 345.437,52.9727 Z" id="Stroke-3" stroke="#050001"></path>
                    <path d="M346.6362,29.4365 C346.6362,29.4365 341.8402,29.1365 339.0752,30.7635 C339.0752,30.7635 334.2212,28.3115 332.1452,29.6485 C332.1452,29.6485 329.0052,27.6855 327.6162,29.9285 C327.6162,29.9285 322.9062,28.5825 320.1572,30.5815 C320.1572,30.5815 314.8102,28.5985 311.4682,29.0515 C311.4682,29.0515 317.8452,32.2375 318.6212,33.2705 C318.6212,33.2705 314.2032,37.8085 313.9912,42.9345 C313.9912,42.9345 313.6562,43.4755 316.1372,43.5765 C318.6122,43.6875 323.1262,47.0835 324.5452,47.3905 C325.9732,47.7075 329.2172,50.0865 335.3492,48.3165 C341.4862,46.5495 340.5132,43.5735 344.3842,42.9275 C348.2502,42.2895 341.6252,34.5485 341.6252,34.5485 L340.6092,33.0655 L346.6362,29.4365 Z" id="Fill-5" fill="#D19B54"></path>
                    <path d="M346.7212,30.2353 C346.7212,30.2353 341.2282,32.2963 340.5822,33.0853 L341.6252,34.5483 C341.6252,34.5483 342.3392,36.0123 343.9632,34.9993 C345.5902,33.9883 348.7822,30.0333 346.7212,30.2353" id="Fill-7" fill="#EA5619"></path>
                    <path d="M334.4985,36.5967 C336.1675,36.7237 337.5825,35.8817 337.6715,34.7147 C337.7625,33.5547 336.4835,32.5077 334.8175,32.3807 C333.1515,32.2567 331.7305,33.0977 331.6425,34.2617 C331.5545,35.4287 332.8325,36.4727 334.4985,36.5967" id="Fill-9" fill="#EA5619"></path>
                    <path d="M324.9624,36.6973 C326.6254,36.8213 328.0464,35.9833 328.1344,34.8163 C328.2224,33.6553 326.9444,32.6123 325.2814,32.4813 C323.6124,32.3573 322.1914,33.2023 322.1074,34.3633 C322.0194,35.5273 323.2964,36.5733 324.9624,36.6973" id="Fill-11" fill="#EA5619"></path>
                    <path d="M321.1772,37.1601 C321.1772,37.1601 323.0162,38.6211 323.3202,39.5761 C323.6222,40.5311 323.2402,41.7831 321.8782,42.2361 C320.5192,42.6931 316.8932,41.4181 318.0732,39.3151 C319.2532,37.2161 318.9562,36.5371 321.1772,37.1601" id="Fill-13" fill="#FEFEFE"></path>
                    <path d="M338.8442,37.1699 C338.8442,37.1699 340.6772,38.6369 340.9832,39.5859 C341.2822,40.5479 340.9072,41.7999 339.5452,42.2529 C338.1832,42.7059 334.5602,41.4279 335.7382,39.3279 C336.9142,37.2289 336.6202,36.5509 338.8442,37.1699" id="Fill-15" fill="#FEFEFE"></path>
                    <path d="M334.7495,40.9062 C334.7495,40.9062 327.3295,40.5022 325.4975,41.1792 C323.6645,41.8612 324.9855,43.2272 326.5855,44.4402 C328.1925,45.6462 330.1165,48.1012 333.3055,45.3402 C333.3055,45.3402 337.7395,40.9812 334.7495,40.9062" id="Fill-17" fill="#EA5619"></path>
                    <path d="M318.6216,33.2705 C318.6216,33.2705 312.3716,29.5535 310.7836,29.7755 C310.7836,29.7755 313.2226,34.6535 314.8466,35.8425 C314.8466,35.8425 316.2056,36.7045 318.6216,33.2705" id="Fill-19" fill="#EA5619"></path>
                    <path d="M339.9595,41.751 C339.9595,41.751 338.0105,44.075 336.0275,41.128 L336.3735,40.446 L339.9595,41.751 Z" id="Fill-21" fill="#FEFEFE"></path>
                    <path d="M322.6899,41.6103 C322.6899,41.6103 322.5949,42.6503 321.1349,42.8203 C319.6679,42.9833 318.1739,42.2333 318.2139,41.4313 C318.2139,41.4313 318.4979,40.6293 318.9309,40.8603 C319.3679,41.0893 322.0149,41.4443 322.6899,41.6103" id="Fill-23" fill="#FEFEFE"></path>
                    <path d="M328.2915,48.3496 C328.2915,48.3496 333.2925,50.3256 339.3375,45.7286 C339.3375,45.7286 344.6575,40.2736 346.5355,44.1016 C346.5355,44.1016 348.5205,45.6366 347.8685,47.4236 C347.2165,49.2096 348.0585,53.7846 342.6855,57.4746 C337.3185,61.1596 329.1905,61.2176 328.3075,61.2466 C327.4305,61.2696 319.2795,60.6236 316.8935,57.5176 C314.5035,54.4076 311.3705,49.9016 312.0065,47.4076 C312.6385,44.9156 314.9315,42.8356 316.8665,43.4366 C318.8005,44.0336 327.3915,48.0206 328.2915,48.3496" id="Fill-25" fill="#9B8971"></path>
                    <path d="M325.5366,51.085 C325.5366,51.085 330.2086,53.589 336.4686,50.228 C342.7276,46.866 344.6086,44.698 345.1366,47.597 C345.6616,50.498 341.4496,57.508 335.1086,58.045 C328.7616,58.587 319.1796,57.094 316.7826,53.634 C314.3866,50.165 314.8006,46.266 317.2876,46.73 C319.7746,47.183 325.5366,51.085 325.5366,51.085" id="Fill-27" fill="#CE2A1B"></path>
                    <path d="M336.9116,57.0742 C336.9116,57.0742 330.8926,50.7392 323.7206,57.3112 C323.7206,57.3112 333.8336,58.5442 336.9116,57.0742" id="Fill-29" fill="#EA5619"></path>
                    <path d="M342.144,51.3916 C342.144,51.3916 342.265,53.5336 339.438,50.9176 C339.438,50.9176 337.165,48.7206 339.735,48.4596 C339.735,48.4596 341.384,46.2656 341.762,48.8256 C342.144,51.3916 342.603,50.2796 342.144,51.3916" id="Fill-31" fill="#FEFEFE"></path>
                    <path d="M320.9458,50.9678 C320.9458,50.9678 319.4688,52.7928 318.7258,52.6928 C317.9888,52.5908 317.8298,49.1638 318.2338,48.4148 C318.6378,47.6678 319.4888,47.4528 320.5538,48.2228 C321.6208,48.9888 322.4848,49.2098 320.9458,50.9678" id="Fill-33" fill="#FEFEFE"></path>
                    <path d="M320.0981,37.3232 C320.0981,37.3232 321.9201,36.4722 322.7611,37.5812 C323.6131,38.6892 324.0731,39.3382 323.7461,40.2542 C323.4171,41.1672 322.5041,42.5332 322.2441,42.5332 C321.9831,42.5332 320.0981,37.3232 320.0981,37.3232" id="Fill-35" fill="#FEFEFE"></path>
                    <path d="M337.7622,37.2549 C337.7622,37.2549 339.7742,36.9969 340.4932,37.7149 C341.2142,38.4319 341.7362,38.8849 341.6032,39.7359 C341.4762,40.5799 340.8202,40.4499 340.8202,40.4499 C340.8202,40.4499 337.9542,37.3229 337.7622,37.2549" id="Fill-37" fill="#FEFEFE"></path>
                    <path d="M337.3452,39.9775 C337.3612,40.5535 337.8402,41.0105 338.4172,40.9915 C338.9972,40.9745 339.4482,40.4955 339.4352,39.9175 C339.4112,39.3375 338.9362,38.8875 338.3592,38.9045 C337.7792,38.9205 337.3282,39.4035 337.3452,39.9775" id="Fill-39" fill="#050101"></path>
                    <path d="M319.6772,39.9834 C319.6942,40.5574 320.1762,41.0104 320.7502,40.9914 C321.3272,40.9774 321.7832,40.4954 321.7642,39.9214 C321.7472,39.3444 321.2722,38.8874 320.6922,38.9084 C320.1172,38.9234 319.6612,39.4034 319.6772,39.9834" id="Fill-41" fill="#050101"></path>
                    <path d="M333.896,44.4043 C333.896,44.4043 331.212,42.8693 332.321,45.4733 L333.896,44.4043 Z" id="Fill-43" fill="#050101"></path>
                    <path d="M328.0659,45.4541 C328.0659,45.4541 328.4309,42.9501 326.2599,43.8951 C326.2599,43.8951 326.6219,46.2301 328.0659,45.4541" id="Fill-45" fill="#050101"></path>
                    <path d="M345.7339,43.0351 C345.7339,43.0351 344.2559,37.6491 343.1909,36.0681 C343.1909,36.0681 347.3469,32.8661 348.2699,29.4701 C348.2699,29.4701 343.5489,28.2891 339.0759,30.7641 C339.0759,30.7641 334.9029,28.5371 332.1449,29.6481 C332.1449,29.6481 331.3849,28.4981 330.2209,28.9711 C330.2209,28.9711 328.0109,28.4491 327.6169,29.9291 C327.6169,29.9291 324.6359,28.4031 320.1569,30.5811 C320.1569,30.5811 314.2199,28.1191 310.7319,29.2511 C310.7319,29.2511 312.0479,34.1931 316.0719,36.2761 C316.0719,36.2761 313.8749,41.3231 313.9499,43.9611" id="Stroke-47" stroke="#050101"></path>
                    <path d="M347.5562,45.1768 C348.3682,47.1078 346.7042,41.0108 342.3752,43.4268 C338.7692,45.4318 336.0932,49.1738 330.6612,48.8938 C325.2262,48.6168 319.3582,43.3618 316.8672,43.4368 C314.3692,43.5078 310.8982,44.9298 312.5182,50.1618 C314.1382,55.3948 318.1282,61.7268 330.7202,61.0678 C343.3112,60.4028 349.2442,52.7568 347.5562,45.1768 Z" id="Stroke-49" stroke="#050101"></path>
                    <path d="M348.27,29.4697 C348.27,29.4697 342.04,31.8527 340.609,33.0657 C340.609,33.0657 342.711,34.9107 343.191,36.0687" id="Stroke-51" stroke="#050101"></path>
                    <path d="M316.0718,36.2764 C316.9098,34.9304 318.6218,33.2704 318.6218,33.2704 C316.6658,31.4224 310.7318,29.2514 310.7318,29.2514" id="Stroke-53" stroke="#050101"></path>
                    <path d="M334.1362,37.3623 C334.1362,37.3623 328.0462,34.7513 333.4042,32.3973 C333.4042,32.3973 337.1882,31.4063 337.9962,34.1673 C338.8122,36.9283 333.9602,36.4853 333.7782,35.1743 C333.5922,33.8573 334.4662,33.5383 335.3562,33.9493" id="Stroke-55" stroke="#050101"></path>
                    <path d="M325.7778,37.1631 C325.7778,37.1631 331.7018,34.2031 326.2168,32.1661 C326.2168,32.1661 322.3868,31.3991 321.7348,34.2031 C321.0828,37.0111 325.9018,36.2831 326.0088,34.9561 C326.1168,33.6401 325.2258,33.3681 324.3658,33.8321" id="Stroke-57" stroke="#050101"></path>
                    <path d="M335.4243,41.4277 C335.4243,41.4277 330.0943,39.5307 324.0033,41.7637 C324.0033,41.7637 323.3103,43.2467 327.3393,45.6237 C331.3653,47.9967 330.9033,47.2767 333.1953,45.3047 C335.4803,43.3347 337.0483,41.8157 335.4243,41.4277 Z" id="Stroke-59" stroke="#050101"></path>
                    <path d="M341.3159,47.2637 C341.3159,47.2637 344.4619,44.6787 345.1359,47.5967 C345.8019,50.5077 342.4899,57.3507 334.4399,57.8817 C326.3899,58.4077 317.5579,57.1947 315.7849,51.6817 C314.0149,46.1557 316.4859,45.4997 319.0289,47.3287 C321.5789,49.1637 326.2049,52.1087 330.5989,51.8377 C334.9879,51.5607 341.3159,47.2637 341.3159,47.2637 Z" id="Stroke-61" stroke="#050101"></path>
                    <path d="M323.8765,40.0264 C323.8765,41.7374 322.4875,43.1204 320.7765,43.1204 C319.0675,43.1204 317.6755,41.7374 317.6755,40.0264 C317.6755,38.3174 319.0675,36.9284 320.7765,36.9284 C322.4875,36.9284 323.8765,38.3174 323.8765,40.0264 Z" id="Stroke-63" stroke="#050101"></path>
                    <path d="M341.603,39.9902 C341.603,41.7022 340.217,43.0872 338.509,43.0872 C336.794,43.0872 335.408,41.7022 335.408,39.9902 C335.408,38.2822 336.794,36.8962 338.509,36.8962 C340.217,36.8962 341.603,38.2822 341.603,39.9902 Z" id="Stroke-65" stroke="#050101"></path>
                    <path d="M337.8501,49.2783 L338.4561,49.8453 C339.0601,50.4133 341.3451,53.2793 342.0331,51.9383 C342.7281,50.6023 341.3161,47.2633 341.3161,47.2633" id="Stroke-67" stroke="#050101"></path>
                    <path d="M322.0317,49.5879 C322.0317,49.5879 320.7577,51.0949 320.0427,51.8549 C319.3317,52.5979 318.0347,53.3669 318.1087,50.7299 C318.1747,48.0919 319.0287,47.3289 319.0287,47.3289" id="Stroke-69" stroke="#050101"></path>
                    <path d="M336.9116,57.0742 C336.9116,57.0742 330.4106,50.3712 323.7206,57.3112 C323.7206,57.3112 333.3056,59.0892 336.9116,57.0742 Z" id="Stroke-71" stroke="#050101"></path>
                    <path d="M266.5259,40.6553 C266.5259,40.6553 268.3519,39.7463 266.2949,37.7763 C266.2949,37.7763 262.1219,25.0743 265.2639,24.9833 C268.4209,24.8953 271.7849,29.3423 272.7239,30.8253 C273.6699,32.3053 274.4779,34.1933 274.4779,34.1933 C274.4779,34.1933 274.7459,35.5403 276.0949,35.5403 C277.4409,35.5403 281.2139,35.8103 281.2139,35.8103 C281.2139,35.8103 282.2929,35.8103 282.9669,33.7863 C283.6389,31.7713 287.4149,26.6523 288.8939,25.8413 C290.3789,25.0353 292.3929,23.1473 292.7969,25.9803 C293.2009,28.8103 291.9889,35.6763 291.0469,37.0263 C290.1069,38.3733 289.4289,39.3153 290.3749,40.2603 C291.3139,41.2033 296.9699,47.5373 292.2529,54.4073 C292.2529,54.4073 288.8809,61.2733 280.6699,61.6803 C272.4499,62.0813 268.5449,58.7103 266.7909,56.8263 C265.0399,54.9413 261.6779,43.2153 266.5259,40.6553" id="Fill-73" fill="#ECC14C"></path>
                    <path d="M269.6235,44.832 C269.6235,44.832 267.2005,46.182 267.7355,48.333 C268.2765,50.498 269.9485,50.55 269.9485,50.55 L273.9335,49.419 C273.9335,49.419 274.8755,46.044 273.7995,45.51 C272.7245,44.969 271.3805,43.756 269.6235,44.832" id="Fill-75" fill="#FEFEFE"></path>
                    <path d="M284.5747,50.3613 C284.5747,50.3613 282.1517,46.8593 284.5777,45.1123 C287.0007,43.3583 288.8877,44.7043 289.1617,44.9713 C289.4227,45.2393 290.5057,48.3423 289.8297,48.8813 C289.1617,49.4223 287.1347,50.9023 287.1347,50.9023 L284.5747,50.3613 Z" id="Fill-77" fill="#FEFEFE"></path>
                    <path d="M277.5679,49.6826 C277.5679,49.6826 270.9659,49.9536 269.0859,51.9776 C267.2009,53.9956 267.7359,55.7466 267.7359,56.9596 C267.7359,58.1686 272.9219,61.2566 274.8759,61.5436 C276.8259,61.8206 285.5169,61.9446 288.3469,58.7166 C291.1799,55.4896 290.3689,53.0606 288.7549,51.9816 C287.1339,50.9026 281.6149,49.1486 277.5679,49.6826" id="Fill-79" fill="#F5B382"></path>
                    <path d="M274.771,35.7031 C274.771,35.7031 267.168,37.7011 264.916,42.9041 C262.66,48.1041 265.121,54.4231 266.548,56.1671 C267.974,57.9051 271.57,61.6541 276.826,61.8201 C282.081,61.9931 289.214,61.2691 292.934,52.7611 C296.647,44.2451 289.746,39.4451 287.917,38.0371 C286.087,36.6361 279.949,34.7901 274.771,35.7031 Z" id="Stroke-81" stroke="#050001"></path>
                    <path d="M267.52,39.6572 C267.52,39.6572 262.75,31.6012 264.73,24.8522 C264.73,24.8522 270.379,24.2792 274.898,35.4282" id="Stroke-83" stroke="#050001"></path>
                    <path d="M281.9761,35.7881 C281.9761,35.7881 286.2211,25.1821 292.3431,24.2721 C292.3431,24.2721 294.4111,31.6671 289.8851,39.3741" id="Stroke-85" stroke="#050001"></path>
                    <path d="M264.73,24.8525 C264.73,24.8525 270.21,28.6575 271.472,36.7985" id="Stroke-87" stroke="#050001"></path>
                    <path d="M292.3433,24.2725 C292.3433,24.2725 287.6423,26.7275 286.1593,36.7045" id="Stroke-89" stroke="#050001"></path>
                    <path d="M268.0552,28.7393 C268.0552,28.7393 268.5602,33.7863 270.1942,37.2813" id="Stroke-91" stroke="#050001"></path>
                    <path d="M289.4653,27.7217 C289.4653,27.7217 289.5663,33.1797 287.2373,37.2387" id="Stroke-93" stroke="#050001"></path>
                    <path d="M273.3169,41.167 C273.3169,41.167 276.6849,40.202 277.6369,41.946 C278.5989,43.69 277.7939,45.177 276.8509,45.054 C275.9059,44.923 275.1559,43.782 276.5049,43.166 L277.0409,43.097" id="Stroke-95" stroke="#050001" stroke-linecap="round"></path>
                    <path d="M284.314,41.0234 C284.314,41.0234 280.943,40.1074 280.007,41.8654 C279.085,43.6194 279.896,45.0954 280.835,44.9554 C281.781,44.8154 282.517,43.6644 281.165,43.0674 L280.626,43.0054" id="Stroke-97" stroke="#050001" stroke-linecap="round"></path>
                    <path d="M270.5688,50.6084 C271.4388,50.3834 272.3098,50.1984 273.1898,50.0544 C273.2098,50.0544 273.2288,50.0504 273.2458,50.0454 C273.9958,49.4514 274.4158,48.6234 274.3808,48.1014 C274.3048,47.0194 274.2828,43.9194 270.3108,44.3484 C270.3108,44.3484 268.4298,44.9684 268.0358,46.3184 C267.6378,47.6684 267.2468,49.6244 269.9488,50.5494 C270.0958,50.6054 270.2498,50.6374 270.3888,50.6804 C270.4418,50.6444 270.5008,50.6254 270.5688,50.6084 Z" id="Stroke-99" stroke="#050001" stroke-linecap="round"></path>
                    <path d="M285.937,44.248 C285.937,44.248 284.06,44.871 283.659,46.217 C283.267,47.567 282.876,49.526 285.576,50.442 C288.275,51.375 290.082,49.073 289.999,47.997 C289.931,46.918 289.912,43.817 285.937,44.248 Z" id="Stroke-101" stroke="#050001" stroke-linecap="round"></path>
                    <path d="M268.2437,57.9277 C268.2437,57.9277 264.2147,49.4607 278.0317,49.6407 C291.8357,49.8197 290.3127,54.0737 289.8597,57.6507" id="Stroke-103" stroke="#050001" stroke-linecap="round"></path>
                    <path d="M287.1304,52.4346 C287.1304,52.4346 297.1074,53.1216 299.0244,54.2736" id="Stroke-105" stroke="#050101" stroke-linecap="round"></path>
                    <path d="M287.02,53.6865 C287.02,53.6865 296.425,54.7915 298.773,56.9305" id="Stroke-107" stroke="#050101" stroke-linecap="round"></path>
                    <path d="M286.5044,55.1924 C286.5044,55.1924 295.5624,56.8654 297.1694,58.9314" id="Stroke-109" stroke="#050101" stroke-linecap="round"></path>
                    <path d="M270.4155,52.8096 C270.4155,52.8096 259.7835,54.4956 258.4795,55.1266" id="Stroke-111" stroke="#050101" stroke-linecap="round"></path>
                    <path d="M271.0972,53.6338 C271.0972,53.6338 260.9992,55.9488 259.7082,56.8358" id="Stroke-113" stroke="#050101" stroke-linecap="round"></path>
                    <path d="M271.3452,54.8144 C271.3452,54.8144 264.1922,56.3594 260.2882,59.0234" id="Stroke-115" stroke="#050101" stroke-linecap="round"></path>
                    <path d="M291.9653,36.3516 L293.0023,37.0526 L291.7243,36.7556 L291.4893,37.2326 C291.4893,37.2326 291.7823,37.6756 292.4513,37.7866 C292.4513,37.7866 291.6043,37.9956 291.2483,37.6326 L291.0883,38.2586 C291.0883,38.2586 291.3853,38.6236 292.0573,38.8136 C292.0573,38.8136 291.5313,38.9206 290.8573,38.8136 L290.5793,38.6016 L291.6623,35.8396 L291.9653,36.3516 Z" id="Fill-117" fill="#050101"></path>
                    <path d="M289.7876,45.0664 L290.8506,44.9844 L289.8396,45.4614 L289.9346,45.9044 C289.9346,45.9044 290.3616,46.0414 290.8666,45.7604 C290.8666,45.7604 290.4136,46.3474 289.9866,46.2984 L290.2146,46.7944 C290.2146,46.7944 290.5966,46.8814 291.1436,46.6504 C291.1436,46.6504 290.8566,47.0034 290.3496,47.2834 L290.0526,47.2904 L289.3176,44.8834 L289.7876,45.0664 Z" id="Fill-119" fill="#050101"></path>
                    <path d="M265.564,36.5078 L264.534,37.2228 L265.809,36.9028 L266.05,37.3748 C266.05,37.3748 265.763,37.8248 265.091,37.9428 C265.091,37.9428 265.943,38.1418 266.294,37.7768 L266.46,38.3998 C266.46,38.3998 266.177,38.7678 265.5,38.9628 C265.5,38.9628 266.031,39.0708 266.699,38.9498 L266.979,38.7358 L265.865,35.9838 L265.564,36.5078 Z" id="Fill-121" fill="#050101"></path>
                    <path d="M267.6118,46.1035 L266.5548,46.1775 L267.6148,46.4915 L267.5828,46.9375 C267.5828,46.9375 267.1848,47.1325 266.6528,46.9345 C266.6528,46.9345 267.1848,47.4395 267.5918,47.3255 L267.4488,47.8475 C267.4488,47.8475 267.0838,47.9915 266.5128,47.8405 C266.5128,47.8405 266.8448,48.1405 267.3768,48.3425 L267.6738,48.3105 L268.0428,45.8515 L267.6118,46.1035 Z" id="Fill-123" fill="#050101"></path>
                    <path d="M292.2007,25.2275 C292.2007,25.2275 292.4837,24.0045 294.1437,23.8715 C294.1437,23.8715 292.8097,24.8525 292.7347,25.1595" id="Fill-125" fill="#050101"></path>
                    <path d="M290.7231,25.1074 C290.7231,25.1074 290.4201,23.8944 291.7961,22.7954 C291.7961,22.7954 291.0721,24.4284 291.1471,24.7354" id="Fill-127" fill="#050101"></path>
                    <path d="M293.4917,23.0596 C293.4917,23.0596 292.1477,24.1196 291.8087,24.9566 L291.2777,25.1816 C291.2777,25.1816 291.0857,24.4136 293.4917,23.0596" id="Fill-129" fill="#050101"></path>
                    <path d="M264.8765,25.2568 C264.8765,25.2568 264.5835,24.0378 262.9135,23.9238 C262.9135,23.9238 264.2675,24.8918 264.3485,25.1928" id="Fill-131" fill="#050101"></path>
                    <path d="M266.3599,25.123 C266.3599,25.123 266.6399,23.9 265.2569,22.821 C265.2569,22.821 266.0019,24.445 265.9259,24.752" id="Fill-133" fill="#050101"></path>
                    <path d="M263.562,23.1123 C263.562,23.1123 264.916,24.1483 265.264,24.9833 L265.805,25.2053 C265.805,25.2053 265.985,24.4283 263.562,23.1123" id="Fill-135" fill="#050101"></path>
                    <path d="M273.2847,55.9199 C273.2877,56.3689 272.8997,56.7339 272.4177,56.7379 C271.9307,56.7379 271.5337,56.3759 271.5307,55.9259 C271.5307,55.4889 271.9187,55.1169 272.4007,55.1169 C272.8867,55.1169 273.2747,55.4729 273.2847,55.9199" id="Fill-137" fill="#050101"></path>
                    <path d="M286.3481,55.9687 C286.3511,56.4147 285.9631,56.7827 285.4811,56.7827 C285.0011,56.7927 284.6011,56.4247 284.6011,55.9817 C284.5971,55.5377 284.9891,55.1697 285.4711,55.1667 C285.9531,55.1667 286.3481,55.5217 286.3481,55.9687" id="Fill-139" fill="#050101"></path>
                    <path d="M271.6118,47.5019 C271.6118,47.8179 271.3548,48.0689 271.0418,48.0689 C270.7318,48.0689 270.4738,47.8179 270.4738,47.5019 C270.4738,47.1859 270.7318,46.9349 271.0418,46.9349 C271.3548,46.9349 271.6118,47.1859 271.6118,47.5019" id="Fill-141" fill="#050001"></path>
                    <path d="M287.2808,47.5049 C287.2808,47.8179 287.0268,48.0719 286.7108,48.0719 C286.4038,48.0719 286.1498,47.8179 286.1498,47.5049 C286.1498,47.1929 286.4038,46.9419 286.7108,46.9419 C287.0298,46.9419 287.2808,47.1929 287.2808,47.5049" id="Fill-143" fill="#050001"></path>
                    <path d="M353.3882,37.6914 C353.3882,37.6914 352.3582,37.6914 351.7782,38.8684 C351.1852,40.0454 351.0372,41.5094 350.8912,42.8304 C350.7472,44.1564 351.1852,45.1804 352.5052,45.4734 C353.8282,45.7674 355.8822,43.2734 355.8822,41.2184 C355.8822,39.1624 355.5892,37.4014 353.3882,37.6914" id="Fill-145" fill="#E69F5D"></path>
                    <path d="M353.3882,37.6914 C353.3882,37.6914 352.3582,37.6914 351.7782,38.8684 C351.1852,40.0454 351.0372,41.5094 350.8912,42.8304 C350.7472,44.1564 351.1852,45.1804 352.5052,45.4734 C353.8282,45.7674 355.8822,43.2734 355.8822,41.2184 C355.8822,39.1624 355.5892,37.4014 353.3882,37.6914 Z" id="Stroke-147" stroke="#050001"></path>
                    <path d="M264.0972,51.7461 C264.0972,51.7461 262.5292,48.6101 259.9932,49.0081 C257.4472,49.3921 256.6672,50.9611 256.2732,53.3141 C255.8782,55.6591 255.6862,60.9431 258.4242,61.3421 C261.1662,61.7291 264.0972,60.1611 263.7092,56.6341 C263.3182,53.1091 264.0972,51.7461 264.0972,51.7461" id="Fill-149" fill="#ECC14C"></path>
                    <path d="M264.0972,51.7461 C264.0972,51.7461 262.5292,48.6101 259.9932,49.0081 C257.4472,49.3921 256.6672,50.9611 256.2732,53.3141 C255.8782,55.6591 255.6862,60.9431 258.4242,61.3421 C261.1662,61.7291 264.0972,60.1611 263.7092,56.6341 C263.3182,53.1091 264.0972,51.7461 264.0972,51.7461 Z" id="Stroke-151" stroke="#050001"></path>
                    <path d="M293.4751,51.7461 C293.4751,51.7461 294.8411,49.2031 297.7821,50.3711 C300.7191,51.5481 301.5011,54.0941 301.7011,56.2421 C301.8901,58.3971 301.8901,60.5561 299.3471,60.7551 C296.8041,60.9431 295.0401,58.6001 295.6261,56.0501 C296.2131,53.5041 296.4131,52.7151 295.2361,52.5321 C294.0581,52.3231 293.4751,51.7461 293.4751,51.7461" id="Fill-153" fill="#ECC14C"></path>
                    <path d="M293.4751,51.7461 C293.4751,51.7461 294.8411,49.2031 297.7821,50.3711 C300.7191,51.5481 301.5011,54.0941 301.7011,56.2421 C301.8901,58.3971 301.8901,60.5561 299.3471,60.7551 C296.8041,60.9431 295.0401,58.6001 295.6261,56.0501 C296.2131,53.5041 296.4131,52.7151 295.2361,52.5321 C294.0581,52.3231 293.4751,51.7461 293.4751,51.7461 Z" id="Stroke-155" stroke="#050001"></path>
                    <path d="M312.4692,51.7461 L311.8792,49.0081 C311.8792,49.0081 308.5472,47.2371 306.3922,49.2031 C304.2372,51.1561 301.7002,57.8171 303.8492,60.3561 C306.0072,62.8991 310.7052,63.2981 311.8792,60.9431 C313.0492,58.6001 309.3332,52.5321 312.4692,51.7461" id="Fill-157" fill="#D19B54"></path>
                    <path d="M312.4692,51.7461 L311.8792,49.0081 C311.8792,49.0081 308.5472,47.2371 306.3922,49.2031 C304.2372,51.1561 301.7002,57.8171 303.8492,60.3561 C306.0072,62.8991 310.7052,63.2981 311.8792,60.9431 C313.0492,58.6001 309.3332,52.5321 312.4692,51.7461 Z" id="Stroke-159" stroke="#050001"></path>
                    <path d="M257.2046,51.3516 C257.1726,51.6196 256.9576,51.8216 256.8976,52.0886 C256.8266,52.4146 256.8076,52.7666 256.7226,53.1096 C256.5536,53.7876 256.3566,54.4326 256.3146,55.1176 C256.4976,54.9416 256.6216,54.6836 256.7226,54.4396 C256.8886,54.0646 257.0356,53.7326 257.2376,53.3706 C257.4176,53.0436 257.5696,52.6986 257.7496,52.3756 C257.8446,52.2056 257.9906,51.8286 258.2026,51.8116 C258.3526,52.3236 257.9446,52.8976 257.7496,53.3706 C257.5696,53.8106 257.3546,54.2796 257.2216,54.7036 C257.4756,54.6836 257.4596,54.3416 257.5246,54.1426 C257.6226,53.8656 257.8376,53.6536 257.9806,53.4026 C258.1666,53.0636 258.3686,52.5056 258.7866,52.3916 C258.8746,52.6686 258.8546,53.1256 258.7866,53.4026 C258.7376,53.5846 258.6756,53.6536 258.6696,53.8496 C258.6556,54.0126 258.7216,54.1756 258.5876,54.3056 C258.7866,54.0326 259.0166,53.8006 259.2596,53.5526" id="Stroke-161" stroke="#050001" stroke-width="0.176"></path>
                    <path d="M263.2261,56.4932 C263.2261,56.6802 263.2361,56.8822 263.2261,57.0772 C263.2131,57.3452 263.0891,57.5502 263.0701,57.8172 C263.0501,58.2122 263.2131,58.7752 262.8941,59.0892 C262.5941,58.7262 262.5261,58.2182 262.4541,57.7812 C262.4091,57.5172 262.2611,56.6892 261.9291,56.6532 C261.7241,57.3352 262.0851,58.1592 261.8711,58.8312 C261.6781,58.7852 261.0361,56.6802 260.8721,57.9542" id="Stroke-163" stroke="#050001" stroke-width="0.176"></path>
                    <path d="M298.3198,50.7685 C298.0008,50.7035 298.1008,50.3715 297.8628,50.2405 C298.0818,50.4525 298.2518,50.6865 298.4568,50.9145 C298.6488,51.1075 298.8778,51.2635 299.0268,51.4925 C299.1248,51.6525 299.1408,51.8285 299.2988,51.9525 C298.8748,51.9915 298.4148,51.2965 298.0858,51.0685 C298.1888,51.4405 298.4538,51.9915 298.7628,52.2325" id="Stroke-165" stroke="#050001" stroke-width="0.176"></path>
                    <path d="M295.5288,56.0498 C295.5258,56.0208 295.5258,55.9878 295.5188,55.9688 C295.7698,56.1568 295.7938,56.4998 295.8518,56.7828 C295.9268,56.8748 295.9688,56.9858 295.9788,57.1128 C295.9718,57.2528 295.9688,57.3868 295.9598,57.5238 C296.0018,57.7228 296.1378,57.8598 296.1188,58.0648 C296.0738,57.8468 296.1978,57.7808 296.2298,57.6348 C296.2758,57.4128 296.2628,57.1918 296.2628,56.9658 C296.2628,56.6658 296.1378,56.0248 296.3708,55.8058 C296.6338,55.9008 296.6798,56.4148 296.7028,56.6308 C296.7258,56.8358 296.8098,57.7748 296.9658,57.8008 C297.0878,57.4358 296.7418,56.1518 297.2538,56.0668 C297.4488,56.3398 297.3648,57.0018 297.7258,57.0768" id="Stroke-167" stroke="#050001" stroke-width="0.176"></path>
                    <path d="M304.3413,59.874 C304.0093,60.536 303.6303,61.162 303.5983,61.932 C303.5853,62.29 303.2883,62.894 303.4483,63.255 C303.6303,63.676 304.0683,62.988 304.1913,62.806 C304.4163,62.479 304.4753,62.124 304.6313,61.785 C304.7263,61.589 304.7303,61.387 304.7783,61.191 C304.8373,60.943 304.9993,60.722 304.9383,60.455 C304.7493,59.652 304.2893,60.598 304.1913,60.889 C304.0413,61.361 304.0293,62.065 303.7373,62.46 C303.9043,62.365 304.0023,61.961 304.0483,61.785 C304.1423,61.472 304.1913,61.136 304.1913,60.794 C304.1913,61.188 304.0413,61.403 304.0483,61.775" id="Stroke-169" stroke="#050001"></path>
                    <path d="M306.8354,61.3418 L306.8354,61.2398 C306.8914,61.5148 306.7314,61.5568 306.6824,61.7658 C306.6494,61.9178 306.6944,62.0658 306.6554,62.2188 C306.6164,62.3918 306.5484,62.4698 306.5384,62.6618 C306.5284,62.8938 306.3984,64.1158 306.5644,64.2558 C307.0014,64.6278 307.2694,63.1568 307.2824,62.9518 C307.2924,62.7068 307.2754,62.4598 307.2754,62.2188 C307.2824,61.9048 307.1124,61.7758 307.0964,61.4978 C306.7734,61.5598 306.8354,62.1108 306.8354,62.3648 C306.8424,62.7698 306.6914,63.0888 306.6914,63.4958 C306.6914,63.1738 306.7964,62.9588 306.8354,62.6618" id="Stroke-171" stroke="#050001"></path>
                    <path d="M309.3335,61.3418 C309.3335,61.7168 309.0955,63.9048 309.7765,63.8518 C310.1645,63.8258 309.9455,61.6348 309.3725,61.4978 C309.3125,61.5928 309.2515,61.6908 309.1885,61.7758" id="Stroke-173" stroke="#050001"></path>
                    <path d="M156.2915,50.8086 L156.2915,52.0316 C156.2915,52.4946 155.9555,52.7126 155.2875,52.7126 L154.0105,52.7126 L154.0105,51.5426 L154.3355,51.5426 C154.4695,51.5426 154.5415,51.4746 154.5415,51.3406 L154.5415,50.8086 L156.2915,50.8086 Z M152.6375,50.8086 L152.6375,51.2856 C152.6375,51.4356 152.7195,51.5036 152.8915,51.5036 L153.3285,51.5036 L153.3285,52.7686 L151.9945,52.7686 C151.3555,52.7686 151.0435,52.5206 151.0435,52.0316 L151.0435,50.8086 L152.6375,50.8086 Z M149.8755,50.7536 L149.8755,51.0666 C149.8755,51.2166 149.9705,51.2856 150.1885,51.2856 L150.7175,51.2856 L150.7175,52.6186 L149.1815,52.6186 C148.5425,52.6186 148.2285,52.3576 148.2285,51.8166 L148.2285,50.7536 L149.8755,50.7536 Z M156.7285,48.7846 C156.6735,49.4626 156.4975,49.9386 156.2275,50.2086 C155.9555,50.4696 155.5745,50.5906 155.0825,50.5906 L147.8515,50.5906 L147.8515,49.1106 L154.2795,49.1106 C154.5515,49.1106 154.7395,48.9996 154.8675,48.7846 L156.7285,48.7846 Z M152.0505,52.8206 L150.5145,53.7336 L154.2795,53.7336 C154.3885,53.7336 154.4435,53.7046 154.4435,53.6256 L154.2255,52.9836 L155.9265,52.9836 C156.0765,53.3946 156.1545,53.5836 156.1545,53.5836 C156.1545,53.6096 156.1715,53.6526 156.2005,53.7336 L156.2005,54.3426 C156.2005,54.7536 155.7935,54.9436 154.9755,54.9436 L151.4925,54.9436 L150.2995,55.7456 L154.4985,55.7456 C154.5935,55.7456 154.6485,55.7156 154.6485,55.6376 L154.4435,55.0506 L156.1455,55.0506 C156.2815,55.4316 156.3635,55.6206 156.3635,55.6206 C156.3735,55.6376 156.3895,55.6766 156.4025,55.7456 L156.4025,56.3586 C156.4025,56.7656 155.9915,56.9676 155.1765,56.9676 L153.1095,56.9676 L153.1095,57.4986 L156.6175,57.4986 L156.6175,58.8716 L153.9405,58.8716 C154.4435,59.2526 154.7035,59.4286 154.7035,59.4286 C154.8675,59.5276 155.0955,59.5666 155.3955,59.5666 L156.6175,59.5666 L156.6175,60.8996 L154.8125,60.8996 C154.0785,60.8996 153.5465,60.7756 153.2335,60.5436 L152.0505,59.6216 L150.8245,60.5576 C150.5545,60.7756 150.1455,60.8996 149.6025,60.8996 L147.7955,60.8996 L147.7955,59.5666 L149.0185,59.5666 C149.2665,59.5666 149.4655,59.5276 149.6175,59.4286 C149.6175,59.4286 149.8365,59.2526 150.2835,58.8716 L147.7955,58.8716 L147.7955,57.4986 L151.0435,57.4986 L151.0435,56.9676 L147.7955,56.9676 L147.7955,55.9636 L149.1125,54.9436 L148.0145,54.9436 L148.0145,53.8836 L149.5495,52.8206 L152.0505,52.8206 Z M146.5305,48.8916 L146.8445,50.3326 C146.9085,50.5516 147.0325,50.6466 147.2085,50.6466 L147.3715,50.6466 L147.3715,52.2886 L146.3645,52.2886 C145.8105,52.2886 145.4125,51.9116 145.1975,51.1216 L144.6135,48.8916 L146.5305,48.8916 Z M146.4755,52.9316 L146.7885,54.2086 C146.8565,54.4246 146.9805,54.5226 147.1695,54.5226 L147.3715,54.5226 L147.3715,56.1656 L146.3125,56.1656 C145.7545,56.1656 145.3595,55.7846 145.1425,54.9956 L144.5615,52.9316 L146.4755,52.9316 Z M147.4825,56.8046 L146.8445,59.8786 C146.6805,60.5866 146.2725,60.9516 145.6175,60.9516 L144.5025,60.9516 L144.5025,59.1456 L144.9785,59.1456 C145.0765,59.1456 145.1585,59.0216 145.2235,58.7506 L145.5655,56.8046 L147.4825,56.8046 Z" id="Fill-175" fill="#050001"></path>
                    <path d="M169.0005,58.9795 L169.1075,59.3085 C169.1635,59.5525 169.3005,59.6735 169.5275,59.6735 L170.2775,59.6735 L170.2775,61.0065 L168.6315,61.0065 C168.0615,61.0065 167.7055,60.7505 167.5685,60.2605 L167.1355,58.9795 L169.0005,58.9795 Z M168.2505,56.8045 L168.2505,56.5465 L165.8185,56.5465 L165.8185,57.1725 L167.8325,57.1725 C168.1045,57.1725 168.2505,57.0525 168.2505,56.8045 L168.2505,56.8045 Z M165.8185,55.1575 L168.2505,55.1575 L168.2505,54.4665 L165.8185,54.4665 L165.8185,55.1575 Z M165.8185,53.0955 L168.2505,53.0955 L168.2505,52.4555 L165.8185,52.4555 L165.8185,53.0955 Z M166.8815,58.9795 L166.3075,60.4785 C166.1565,60.8315 165.8025,61.0065 165.2305,61.0065 L163.8425,61.0065 L163.8425,59.7295 L164.6475,59.7295 C164.7035,59.7295 164.7685,59.6895 164.8235,59.6055 L165.0685,58.9795 L166.8815,58.9795 Z M170.1705,50.3335 L167.9925,50.3335 L167.8165,50.9585 L169.9515,50.9585 L169.9515,57.5545 C169.9515,58.3005 169.5275,58.6695 168.6875,58.6695 L164.1725,58.6695 L164.1725,50.9585 L165.9655,50.9585 L166.1445,50.3335 L163.7905,50.3335 L163.7905,48.8365 L170.1705,48.8365 L170.1705,50.3335 Z M161.8305,54.5225 L161.8305,52.6575 L160.0805,52.6575 L160.0805,54.8485 L161.4525,54.8485 C161.6975,54.8485 161.8305,54.7375 161.8305,54.5225 L161.8305,54.5225 Z M163.4255,51.2295 L163.4255,55.2135 C163.4255,55.9205 163.0275,56.2765 162.2545,56.2765 L158.4345,56.2765 L158.4345,51.2295 L163.4255,51.2295 Z M158.2715,50.4835 L163.5885,50.4835 L163.5885,48.9475 L158.2715,48.9475 L158.2715,50.4835 Z M160.0805,56.9155 L160.4065,59.3645 L161.2605,59.3645 L161.6685,56.9155 L163.2065,56.9155 L162.7995,59.3645 L163.5885,59.3645 L163.5885,60.8995 L158.1045,60.8995 L158.1045,59.3645 L158.8145,59.3645 L158.4885,56.9155 L160.0805,56.9155 Z" id="Fill-177" fill="#050001"></path>
                    <mask id="mask-2" fill="white">
                        <use xlink:href="#path-1"></use>
                    </mask>
                    <g id="Clip-180"></g>
                    <path d="M179.31,56.1104 L181.706,56.1104 L181.706,54.2094 L179.31,54.2094 L179.31,56.1104 Z M179.31,52.6564 L181.706,52.6564 L181.706,50.5904 L179.31,50.5904 L179.31,52.6564 Z M183.554,49.0004 L183.554,59.6214 C183.554,60.5444 183,61.0064 181.911,61.0064 L180.479,61.0064 L180.479,59.4164 L181.268,59.4164 C181.559,59.4164 181.706,59.2954 181.706,59.0354 L181.706,57.6624 L179.309,57.6624 L179.309,59.6214 C179.283,60.5174 178.849,60.9814 178.031,61.0064 L176.919,61.0064 L176.919,59.4164 L177.34,59.4164 C177.451,59.4164 177.502,59.3354 177.502,59.1454 L177.502,49.0004 L179.368,49.0004 L183.554,49.0004 Z M174.947,58.5584 L174.947,55.6374 L173.79,55.6374 L173.79,58.9264 L174.523,58.9264 C174.797,58.9264 174.947,58.8064 174.947,58.5584 L174.947,58.5584 Z M173.79,53.9914 L174.947,53.9914 L174.947,50.8644 L173.79,50.8644 L173.79,53.9914 Z M176.701,49.2564 L176.701,59.3644 C176.701,60.1364 176.28,60.5314 175.436,60.5314 L171.983,60.5314 L171.983,49.2564 L176.701,49.2564 Z" id="Fill-179" fill="#050001" mask="url(#mask-2)"></path>
                    <path d="M187.6519,50.2256 L187.6519,59.0356 L190.3059,59.0356 L190.3059,48.7296 L192.3819,48.7296 L192.3819,59.0356 L194.6129,59.0356 C194.8599,59.0356 194.9849,58.9406 194.9849,58.7216 L194.9849,50.2256 L197.0509,50.2256 L197.0509,59.5666 C197.0509,60.3806 196.5719,60.7886 195.6199,60.7886 L185.5849,60.7886 L185.5849,50.2256 L187.6519,50.2256 Z" id="Fill-181" fill="#050001" mask="url(#mask-2)"></path>
                    <path d="M208.5308,51.1221 L208.8988,51.9791 C208.9648,52.1551 209.1178,52.2371 209.3368,52.2371 L210.9788,52.2371 L210.9788,53.8281 L208.3288,53.8281 C207.9598,53.8281 207.6468,53.6091 207.4028,53.1631 L206.4638,51.1221 L208.5308,51.1221 Z M211.0868,56.1661 L208.8018,56.1661 L208.8018,56.6421 L210.2878,56.6421 L210.6398,59.0901 C210.6958,59.3091 210.8428,59.4161 211.0868,59.4161 L211.0868,60.9511 L210.1248,60.9511 C209.7008,60.9511 209.4438,60.6261 209.3368,60.0001 L208.8018,56.9551 L208.8018,61.0621 L207.0508,61.0621 L207.0508,56.1661 L205.1308,56.1661 L205.1308,54.6301 L207.0508,54.6301 L207.0508,53.9351 L208.8018,53.9351 L208.8018,54.6301 L211.0868,54.6301 L211.0868,56.1661 Z M203.4348,51.1221 L202.4368,53.1631 C202.2218,53.6091 201.8668,53.8281 201.3648,53.8281 L199.0268,53.8281 L199.0268,52.2371 L200.5628,52.2371 C200.7418,52.2371 200.8758,52.1551 200.9578,51.9791 L201.3648,51.1221 L203.4348,51.1221 Z M210.9238,50.7541 L205.8808,50.7541 L205.8808,53.9351 L203.9638,53.9351 L203.9638,50.7541 L198.9748,50.7541 L198.9748,49.1101 L203.9638,49.1101 L203.9638,48.5231 L205.8808,48.5231 L205.8808,49.1101 L210.9238,49.1101 L210.9238,50.7541 Z M204.8208,56.1661 L202.7368,56.1661 L202.7368,56.6421 L204.2338,56.6421 L204.5498,58.3441 C204.6018,58.6011 204.7228,58.7221 204.9278,58.7221 L204.9278,59.5111 L205.0748,59.5111 C205.1858,59.5111 205.2548,59.3901 205.2798,59.1161 L205.5118,56.6421 L207.0508,56.6421 L206.6688,60.0001 C206.5878,60.6261 206.3698,60.9511 205.9908,60.9511 L204.7648,60.9511 L204.7648,60.0981 L204.1258,60.0981 C203.6788,60.0981 203.3888,59.8231 203.2818,59.3091 L202.7368,56.8341 L202.7368,61.0621 L200.9968,61.0621 L200.9968,56.1661 L198.9198,56.1661 L198.9198,54.6301 L200.9968,54.6301 L200.9968,53.9351 L202.7368,53.9351 L202.7368,54.6301 L204.8208,54.6301 L204.8208,56.1661 Z M200.6178,60.0001 C200.5368,60.6261 200.3048,60.9511 199.9268,60.9511 L198.8118,60.9511 L198.8118,59.4591 L199.0268,59.4591 C199.1218,59.4591 199.1898,59.3351 199.2288,59.0641 L199.4478,56.6421 L200.9968,56.6421 L200.6178,60.0001 Z" id="Fill-182" fill="#050001" mask="url(#mask-2)"></path>
                    <path d="M224.105,52.0742 L224.42,58.3442 C224.457,58.6402 224.568,58.7772 224.747,58.7772 L224.747,60.3162 L223.889,60.3162 C223.333,60.3162 223.019,59.8792 222.938,59.0352 L222.608,52.0742 L224.105,52.0742 Z M224.42,51.5432 L222.407,51.5432 L222.407,60.9512 L220.815,60.9512 L220.815,51.5432 L218.791,51.5432 L218.791,50.0072 L220.815,50.0072 L220.815,48.8372 L222.407,48.8372 L222.407,50.0072 L224.42,50.0072 L224.42,51.5432 Z M220.652,52.0742 L220.257,59.1842 C220.232,59.6472 220.094,59.9902 219.864,60.2182 C219.606,60.4492 219.309,60.5732 218.954,60.5732 L218.041,60.5732 L218.041,59.0902 L218.477,59.0902 C218.683,59.0902 218.791,58.9142 218.803,58.5462 L219.156,52.0742 L220.652,52.0742 Z M217.731,52.0742 L218.041,56.7532 C218.083,57.0362 218.194,57.1732 218.367,57.1732 L218.683,57.1732 L218.683,58.6702 L217.568,58.6702 C217.007,58.6702 216.698,58.2592 216.616,57.4432 L216.299,52.0742 L217.731,52.0742 Z M218.041,51.5432 L216.192,51.5432 L216.192,60.9512 L214.604,60.9512 L214.604,52.8202 L214.262,59.0092 C214.233,59.4712 214.099,59.7982 213.88,60.0002 C213.636,60.2472 213.336,60.3682 212.997,60.3682 L212.358,60.3682 L212.358,58.7772 L212.465,58.7772 C212.671,58.7772 212.782,58.6002 212.808,58.2492 L213.164,52.0742 L214.604,52.0742 L214.604,51.5432 L212.737,51.5432 L212.737,50.0072 L214.604,50.0072 L214.604,48.7842 L216.192,48.7842 L216.192,50.0072 L218.041,50.0072 L218.041,51.5432 Z" id="Fill-183" fill="#050001" mask="url(#mask-2)"></path>
                    <path d="M236.1187,54.3594 L236.1187,53.4634 L232.9787,53.4634 L232.9787,54.6304 L233.5237,54.6304 L233.9307,53.7724 L235.5877,53.7724 L235.1827,54.6304 L235.7367,54.6304 C235.9817,54.6304 236.1187,54.5484 236.1187,54.3594 L236.1187,54.3594 Z M235.7797,50.6464 L234.8927,50.1144 L229.4717,50.1144 L228.6397,50.6464 L235.7797,50.6464 Z M235.7927,59.3084 L235.7927,59.2014 L228.4637,59.2014 L228.4637,59.6734 L235.4827,59.6734 C235.6817,59.6734 235.7927,59.5524 235.7927,59.3084 L235.7927,59.3084 Z M228.4637,58.0304 L235.7927,58.0304 L235.7927,57.5544 L228.4637,57.5544 L228.4637,58.0304 Z M231.3857,53.4634 L228.2457,53.4634 L228.2457,54.6304 L229.1837,54.6304 L228.8287,53.7724 L230.4887,53.7724 L230.8307,54.6304 L231.3857,54.6304 L231.3857,53.4634 Z M237.4947,56.3324 L237.4947,59.8924 C237.4947,60.5574 237.0867,60.8994 236.2717,60.8994 L226.7647,60.8994 L226.7647,56.3324 L237.4947,56.3324 Z M237.7647,52.2894 L237.7647,54.9434 C237.7647,55.5134 237.3577,55.8004 236.5397,55.8004 L226.6017,55.8004 L226.6017,52.2894 L237.7647,52.2894 Z M236.0087,48.7844 L236.7447,49.2994 C236.8787,49.4204 237.0317,49.4754 237.1787,49.4754 L238.1307,49.4754 L238.1307,50.8644 L236.9597,50.8644 L236.9597,51.8694 L227.2967,51.8694 L227.2967,50.8644 L226.1807,50.8644 L226.1807,49.4754 L227.2967,49.4754 C227.4307,49.4754 227.5517,49.4204 227.6747,49.2994 L228.3557,48.7844 L236.0087,48.7844 Z" id="Fill-184" fill="#050001" mask="url(#mask-2)"></path>
                    <path d="M249.561,59.459 C249.805,59.459 249.926,59.364 249.926,59.146 L249.926,58.507 L247.438,58.507 L247.438,59.459 L247.911,59.459 L249.561,59.459 Z M247.438,53.678 L247.438,54.574 L249.454,54.574 C249.698,54.574 249.815,54.48 249.815,54.262 L249.815,53.678 L249.082,53.678 L247.438,53.678 Z M247.438,56.968 L251.68,56.968 L251.68,59.621 C251.68,60.505 251.165,60.951 250.144,60.951 L245.737,60.951 L245.737,52.126 L251.573,52.126 L251.573,54.737 C251.573,55.621 251.054,56.058 250.034,56.058 L247.438,56.058 L247.438,56.968 Z M249.723,48.784 L249.723,49.531 L251.842,49.531 L251.842,51.816 L250.034,51.816 L250.034,51.015 L247.275,51.015 L247.275,51.816 L245.465,51.816 L245.465,49.531 L247.64,49.531 L247.64,48.784 L249.723,48.784 Z M243.455,58.927 L243.455,58.249 L241.538,58.249 L241.538,59.416 L243.125,59.416 C243.343,59.416 243.455,59.253 243.455,58.927 L243.455,58.927 Z M244.938,53.678 L243.343,53.678 L243.343,54.522 L245.045,54.522 L245.045,55.964 L243.343,55.964 L243.343,56.805 L245.1,56.805 L245.1,59.621 C245.1,60.437 244.703,60.844 243.93,60.844 L239.891,60.844 L239.891,56.805 L241.538,56.805 L241.538,55.964 L239.835,55.964 L239.835,54.522 L241.538,54.522 L241.538,53.678 L239.943,53.678 L239.943,52.182 L244.938,52.182 L244.938,53.678 Z M243.986,48.892 L244.377,49.642 C244.458,49.814 244.54,49.899 244.622,49.899 L245.153,49.899 L245.153,51.543 L243.93,51.543 C243.738,51.543 243.579,51.461 243.455,51.285 L242.815,50.372 L242.121,50.372 L241.443,51.285 C241.305,51.461 241.143,51.543 240.951,51.543 L239.728,51.543 L239.728,49.899 L240.259,49.899 C240.34,49.899 240.422,49.814 240.503,49.642 L240.951,48.892 L243.986,48.892 Z" id="Fill-185" fill="#050001" mask="url(#mask-2)"></path>
                    <polygon id="Fill-186" fill="#050001" mask="url(#mask-2)" points="158.6392 19.5625 159.2972 22.6405 169.5642 22.6405 169.5642 26.3575 159.2972 26.3575 159.2972 31.5895 169.0002 31.5895 169.0002 35.1955 159.2972 35.1955 159.2972 41.0895 169.8972 41.0895 169.8972 44.8105 144.7602 44.8105 144.7602 41.0895 155.1372 41.0895 155.1372 35.1955 145.4352 35.1955 145.4352 31.5895 155.1372 31.5895 155.1372 26.3575 145.0962 26.3575 145.0962 22.6405 154.9422 22.6405 154.2772 19.5625"></polygon>
                    <path d="M194.896,38.0391 L195.176,38.7431 C195.343,39.0791 195.594,39.2451 195.982,39.2451 L197.528,39.2451 L197.528,41.5401 L194.586,41.5401 C193.361,41.5401 192.523,40.9771 192.018,39.8641 L191.176,38.0391 L194.896,38.0391 Z M193.697,34.2181 L193.697,33.6501 L188.799,33.6501 L188.799,34.8601 L192.94,34.8601 C193.436,34.8601 193.697,34.6641 193.697,34.2181 L193.697,34.2181 Z M188.8,31.2511 L193.697,31.2511 L193.697,30.0381 L188.8,30.0381 L188.8,31.2511 Z M188.8,27.6681 L193.697,27.6681 L193.697,26.4751 L188.8,26.4751 L188.8,27.6681 Z M197.635,22.7481 L192.8,22.7481 L192.523,23.8441 L197.078,23.8441 L197.078,35.5351 C197.078,36.8461 196.237,37.4871 194.586,37.4871 L185.5,37.4871 L185.5,23.8441 L189.021,23.8441 L189.305,22.7481 L184.862,22.7481 L184.862,19.8981 L197.635,19.8981 L197.635,22.7481 Z M190.759,38.0391 C190.205,39.5551 189.637,40.5071 189.142,40.8981 C188.582,41.3481 187.965,41.5401 187.26,41.5401 L184.753,41.5401 L184.753,39.2451 L186.058,39.2451 C186.482,39.2451 186.846,38.8531 187.157,38.0391 L190.759,38.0391 Z M180.805,28.2061 L180.805,27.0031 L176.883,27.0031 L176.883,28.8771 L180.049,28.8771 C180.551,28.8771 180.805,28.6521 180.805,28.2061 L180.805,28.2061 Z M176.883,24.4791 L180.805,24.4791 L180.805,22.7481 L176.883,22.7481 L176.883,24.4791 Z M183.991,20.1201 L183.991,29.5191 C183.991,30.8341 183.206,31.4791 181.699,31.4791 L173.624,31.4791 L173.624,20.1201 L183.991,20.1201 Z M184.862,35.5351 L181.471,35.5351 L181.471,37.1481 L184.412,37.1481 L184.412,40.0051 L181.471,40.0051 L181.471,41.9541 L197.971,41.9541 L197.971,44.9181 L180.167,44.9181 C178.598,44.9181 177.17,44.5071 175.912,43.7181 C175.078,44.5891 173.923,45.0381 172.505,45.0381 L172.505,41.9541 C173.004,41.7321 173.284,41.4331 173.284,41.0901 L173.284,36.8461 L176.557,36.8461 L176.557,40.1121 C176.557,40.4551 177.059,40.8981 178.064,41.4001 C178.116,41.4331 178.142,41.4621 178.201,41.4621 L178.201,35.5351 L172.723,35.5351 L172.723,32.4471 L184.862,32.4471 L184.862,35.5351 Z" id="Fill-187" fill="#050001" mask="url(#mask-2)"></path>
                    <path d="M215.8208,42.9814 C216.2668,42.9814 216.5118,42.8184 216.5998,42.4534 L218.0528,37.9544 L215.3998,30.8764 L219.0068,30.8764 L219.7358,32.7734 L220.8508,29.3434 L215.2828,29.3434 L215.2828,42.2314 C215.2828,42.5114 215.2628,42.7654 215.1978,42.9814 L215.8208,42.9814 Z M203.4868,33.5064 L203.4868,34.6804 L206.9788,34.6804 C207.4028,34.6804 207.6318,34.5174 207.6318,34.1424 L207.6318,33.5064 L203.4868,33.5064 Z M203.4868,30.5434 L207.6318,30.5434 L207.6318,29.2324 L203.4868,29.2324 L203.4868,30.5434 Z M207.4318,25.4024 L207.4318,26.4034 L211.0088,26.4034 L211.0088,35.4604 C211.0088,36.8584 210.2818,37.5334 208.8278,37.5334 L203.4868,37.5334 L203.4868,38.8534 L210.5888,38.8534 L210.5888,41.7784 L203.4868,41.7784 L203.4868,42.5634 C203.4868,42.9354 203.6818,43.0884 204.1258,43.0884 L210.9208,43.0884 L210.9208,41.7784 L211.5688,41.7784 C211.7878,41.7784 211.9018,41.6124 211.9018,41.2434 L211.9018,21.5934 L224.5678,21.5934 L224.5678,24.7564 L215.2828,24.7564 L215.2828,26.0674 L224.2348,26.0674 L224.2348,29.5584 L221.6328,37.6994 L223.2548,41.8924 C223.4008,42.4204 223.6518,42.6774 224.0038,42.6774 L224.5678,42.6774 L224.5678,46.1754 L222.3928,46.1754 C221.3268,46.1754 220.5998,45.3324 220.2058,43.6594 L219.9618,42.9584 L219.3968,44.6604 C219.0908,45.6644 218.3348,46.1754 217.1318,46.1754 L215.1778,46.1754 L215.1778,43.0884 C214.8908,44.3504 214.0828,45.0254 212.7688,45.0844 L210.9208,45.0844 L210.9208,46.1754 L202.4008,46.1754 C200.7778,46.1754 199.9918,45.3644 199.9918,43.7634 L199.9918,26.4034 L203.7018,26.4034 L203.7018,25.4024 L207.4318,25.4024 Z M209.0498,20.8044 L210.0858,22.0444 C210.2528,22.3244 210.4768,22.4554 210.6988,22.4554 L211.4558,22.4554 L211.4558,25.5024 L209.3848,25.5024 C208.9448,25.5024 208.6058,25.4024 208.3288,25.1474 L206.8678,23.8894 L204.4658,23.8894 L203.0698,25.1474 C202.7898,25.4024 202.4498,25.5024 202.0588,25.5024 L199.5428,25.5024 L199.5428,22.4554 L200.7448,22.4554 C200.9408,22.4554 201.1388,22.3244 201.2998,22.0444 L202.2838,20.8044 L209.0498,20.8044 Z" id="Fill-188" fill="#050001" mask="url(#mask-2)"></path>
                    <path d="M248.2534,41.6709 L248.2534,37.1969 L236.7874,37.1969 L236.7874,42.4529 L247.3794,42.4529 C247.9434,42.4529 248.2534,42.2049 248.2534,41.6709 L248.2534,41.6709 Z M241.9354,26.7129 L241.9354,28.6979 L251.2104,28.6979 L251.2104,31.7399 L241.9354,31.7399 L241.9354,33.9279 L251.9734,33.9279 L251.9734,43.3229 C251.9734,44.8259 251.0474,45.6089 249.2574,45.6089 L233.1004,45.6089 L233.1004,33.9279 L238.2114,33.9279 L238.2114,26.7129 L241.9354,26.7129 Z M242.9024,20.9229 L242.9024,22.4549 L252.6414,22.4549 L252.6414,25.7339 L232.0854,25.7339 L232.0854,42.4529 C232.0854,44.9109 230.8574,46.1759 228.4014,46.1759 L227.5084,46.1759 L227.5084,42.9819 L227.6154,42.9819 C228.1174,42.9819 228.4014,42.7039 228.4014,42.1139 L228.4014,22.4549 L238.5544,22.4549 L238.5544,20.9229 L242.9024,20.9229 Z" id="Fill-189" fill="#050001" mask="url(#mask-2)"></path>
                    <path d="M28.6753,50.8975 C27.9923,50.9345 26.7563,50.3315 24.8333,49.2825 C25.4203,47.2865 25.9443,45.3295 26.2013,43.8805 C26.8013,40.4705 27.8703,37.3285 28.1343,36.5295 C28.4053,35.7235 28.4743,36.1935 28.7413,38.1985 C29.0053,40.2045 29.3443,43.5455 29.3443,46.2875 C29.3443,49.0265 29.8723,50.8325 28.6753,50.8975 M20.1143,52.0325 C19.5793,54.3035 18.9803,58.6535 18.6483,59.1845 C18.3123,59.7195 17.2383,58.9175 16.1733,57.7795 C15.1073,56.6455 14.4353,55.7095 12.3003,53.9745 C10.1573,52.2375 8.0193,50.4305 7.0153,49.4955 C6.0143,48.5565 3.8103,47.7575 3.2723,47.4875 C2.7383,47.2225 3.3403,46.6205 4.6773,45.9515 C6.0143,45.2835 6.5453,44.8815 8.7523,43.8125 C8.9103,43.7385 9.0613,43.6645 9.2153,43.5895 C9.5993,44.2695 10.1783,45.1035 11.0293,46.1535 C13.3003,48.9575 18.1123,50.9625 18.1123,50.9625 C18.8043,51.2915 19.4793,51.6055 20.1443,51.9095 C20.1343,51.9485 20.1233,51.9955 20.1143,52.0325 M16.0353,40.3365 C18.9013,39.0565 20.8903,38.4375 23.9023,37.2745 C23.6193,38.2305 23.3523,39.1665 23.1263,40.0015 C22.6303,41.8255 21.8993,44.7285 21.2613,47.3125 C20.5913,46.9465 19.8783,46.5605 19.1113,46.1535 C15.1853,44.0665 14.0773,42.9295 13.6353,41.4415 C14.3643,41.0975 15.1483,40.7355 16.0353,40.3365 M40.5003,31.3165 C41.3713,30.1135 40.1033,29.4385 39.0993,29.4385 C38.0983,29.4385 35.6233,30.9125 33.8823,31.6455 C33.0463,32.0005 32.2233,32.3855 31.2403,32.8015 C31.1013,30.5435 30.6203,28.4615 29.5363,28.1085 C28.3373,27.7045 26.8013,28.7735 26.1323,30.4465 C25.7693,31.3525 25.1703,33.1485 24.5593,35.1125 C21.6223,36.0545 18.1783,37.1955 15.9743,38.0005 C15.1473,38.2995 14.2133,38.6215 13.2523,38.9535 C13.1433,36.6155 14.2643,35.0125 16.3103,31.1795 C18.5103,27.0355 19.2473,27.5705 19.8473,27.3685 C20.4503,27.1725 21.3863,27.1725 21.5883,25.1615 C21.7903,23.1595 20.1143,22.4225 19.0423,22.4915 C17.9793,22.5595 16.7103,23.6285 15.9743,24.4925 C15.2373,25.3665 11.9603,29.5065 9.9553,33.0535 C8.3583,35.8765 8.4183,39.3765 8.5073,40.6815 C7.7833,40.9745 7.1333,41.2635 6.6133,41.5405 C4.4753,42.6775 1.2703,44.3475 0.4653,45.1525 C-0.3407,45.9515 -0.0017,47.8235 0.7293,48.1585 C1.4693,48.4915 2.6723,48.6255 3.6053,49.0945 C4.5433,49.5605 7.3513,51.3015 8.6843,52.5015 C10.0243,53.7085 13.7673,56.9775 15.5043,58.4485 C17.2383,59.9215 18.3803,60.7895 19.5793,60.7895 C20.7823,60.7895 21.6543,59.3865 22.5893,56.4465 C22.8513,55.6215 23.2043,54.5345 23.5873,53.3295 C25.1903,53.8815 26.6263,54.1705 27.8053,53.9745 C30.2143,53.5705 30.6093,51.7645 30.8153,49.6285 C31.0103,47.4875 31.0783,46.3495 31.2783,43.2785 C31.4523,40.6185 31.3783,37.2095 31.3093,34.6955 C31.6283,34.6005 31.9703,34.5005 32.3473,34.3875 C35.4893,33.4555 39.6363,32.5195 40.5003,31.3165" id="Fill-190" fill="#050001" mask="url(#mask-2)"></path>
                    <path d="M41.104,38.7334 C40.435,38.5314 40.374,38.1294 40.973,37.5304 C41.57,36.9264 42.375,36.5914 43.911,35.6624 C45.45,34.7234 46.249,34.2544 46.721,33.7874 C46.771,33.7374 46.811,33.6904 46.847,33.6454 C46.724,34.3794 46.595,35.1784 46.451,36.0594 C46.291,37.0374 46.131,37.9044 45.972,38.7364 C43.654,38.7534 41.744,38.9224 41.104,38.7334 M55.808,39.2644 C56.411,37.7974 56.876,36.2584 57.144,35.4574 C57.418,34.6544 56.876,34.5214 56.544,35.3914 C56.212,36.2584 55.743,38.0654 55.142,38.8674 C54.54,39.6664 53.265,39.1994 51.736,39.1344 C50.754,39.0904 49.824,38.9404 48.64,38.8364 C48.782,37.9534 48.922,37.1164 49.056,36.3924 C49.727,32.7804 49.929,29.9764 50.594,29.2394 C50.985,28.8114 51.288,28.4874 51.614,28.2544 C55.003,29.3114 56.171,29.3274 56.544,28.7734 C56.942,28.1734 56.942,26.8374 54.81,26.0354 C54.81,26.0354 49.995,23.8274 46.92,22.3534 C43.842,20.8834 39.901,18.8814 38.365,17.7474 C36.827,16.6064 35.49,16.8114 34.623,17.7474 C33.752,18.6824 34.89,20.3524 37.09,21.6204 C39.023,22.7314 44.879,25.7304 49.047,27.3614 C48.75,27.6664 48.417,28.0824 48.126,28.6394 C47.605,29.6274 47.286,31.0914 46.932,33.1484 C46.837,32.9894 46.616,32.8344 46.249,32.6494 C45.45,32.2494 45.114,32.4474 44.247,32.8484 C43.376,33.2504 41.635,34.1204 41.635,34.1204 C41.635,34.1204 39.699,35.0554 38.496,36.0594 C37.292,37.0644 36.689,37.5304 36.625,39.4664 C36.559,41.4064 39.167,41.9414 41.437,42.1404 C42.583,42.2424 43.848,42.2764 45.308,42.2584 C45.103,43.4294 44.903,44.7104 44.712,46.2874 C44.181,50.6984 43.644,53.3064 43.911,55.1094 C44.181,56.9164 44.514,57.9784 45.179,57.5124 C45.851,57.0454 46.249,55.4424 46.92,50.6984 C47.298,48.0254 47.715,44.9794 48.127,42.1764 C48.805,42.1484 49.508,42.1154 50.265,42.0754 C54.07,41.8764 55.21,40.7384 55.808,39.2644" id="Fill-191" fill="#050001" mask="url(#mask-2)"></path>
                    <path d="M58.1479,49.293 C56.6129,48.09 56.0089,47.223 55.0089,45.887 C54.0039,44.55 53.5999,43.679 52.6029,43.881 C52.6029,43.881 51.8629,43.943 51.6679,44.68 C51.4639,45.413 51.7969,46.482 52.5349,47.621 C53.2649,48.759 54.2749,49.897 55.7429,51.165 C57.2159,52.437 59.2209,53.307 59.7549,52.303 C60.2869,51.302 59.6869,50.496 58.1479,49.293" id="Fill-192" fill="#050001" mask="url(#mask-2)"></path>
                    <path d="M75.8423,15.8135 C76.2493,16.1425 76.6473,16.3445 76.8533,17.0795 C77.0483,17.8155 77.0483,18.2785 76.3803,18.6175 C76.1303,18.7425 75.7873,18.8215 75.4123,18.8845 C75.1013,17.6865 74.9153,16.7895 74.9823,16.2115 C74.9983,16.0495 75.0423,15.9285 75.1023,15.8345 C75.2183,15.7735 75.3383,15.7125 75.4603,15.6535 C75.5813,15.6615 75.7093,15.7015 75.8423,15.8135 M71.0333,18.8845 C70.7663,18.7515 71.1673,18.5485 72.1063,17.8805 C72.8213,17.3705 73.3793,17.0125 73.9063,16.6345 C73.9673,17.8605 73.8653,18.2395 74.0073,19.0395 C73.7543,19.0545 73.4993,19.0705 73.2373,19.0845 C71.9723,19.1485 71.3043,19.0155 71.0333,18.8845 M66.0223,13.9395 C65.7423,14.0005 65.2413,14.0135 64.6523,13.9935 C64.7863,12.1765 64.9713,11.2255 65.2203,10.7925 C65.4853,10.3275 65.6873,10.0595 66.2213,10.5905 C66.7563,11.1285 67.2253,12.1325 67.2933,12.5995 C67.3593,13.0685 66.9543,13.7375 66.0223,13.9395 M81.0593,12.6675 C80.3903,12.2635 78.2543,12.3325 75.8423,11.9305 C75.4763,11.8695 75.1073,11.7835 74.7383,11.6865 C74.8633,11.4815 74.9883,11.2755 75.1123,11.0635 C76.3123,8.9935 78.3203,5.1815 78.5873,3.7775 C78.8553,2.3775 78.9233,1.3085 78.3853,0.6405 C77.8543,-0.0275 74.3103,-0.2945 71.7673,0.4415 C71.7673,0.4415 71.5713,0.4415 70.2993,0.9085 C69.0283,1.3765 68.3633,1.7755 68.1603,2.2445 C67.9593,2.7105 68.2303,3.1115 69.7623,2.5115 C71.3043,1.9125 73.5793,1.3765 74.6463,1.3085 C75.7113,1.2445 76.9113,1.3765 76.9113,1.9775 C76.9113,2.5805 76.7163,3.3145 75.9103,4.7815 C75.1123,6.2505 74.7113,7.0535 73.7033,9.0615 C73.2523,9.9665 72.9673,10.5395 72.7433,11.0245 C71.5113,10.5305 70.4833,9.9685 70.0323,9.5925 C69.2313,8.9275 68.6963,8.9275 68.2303,9.1885 C68.0353,9.2995 67.9583,9.6295 67.9313,9.9785 C67.1933,8.6315 66.3483,8.1045 65.4193,8.2595 C64.2163,8.4555 63.8123,8.9275 63.2093,10.7925 C62.9583,11.5805 62.7473,12.6345 62.6053,13.8115 C61.7253,13.6855 60.8683,13.5035 60.2723,13.2705 C58.7363,12.6675 57.5323,11.1975 57.4673,10.0595 C57.3993,8.9275 57.7353,7.9235 58.4003,6.9855 C59.0693,6.0485 59.8733,5.1135 60.6043,4.7125 C61.3403,4.3145 62.0773,4.1165 62.1463,3.6435 C62.2113,3.1805 61.8753,2.3775 60.7403,2.5805 C59.6063,2.7795 58.4003,3.7145 58.4003,3.7145 C58.4003,3.7145 57.1313,4.7125 55.9323,6.4535 C54.7263,8.1915 54.6563,9.3905 54.9963,10.9955 C55.3283,12.5995 56.8623,15.2075 59.4053,15.8135 C60.2893,16.0225 61.3623,16.1815 62.4363,16.2675 C62.4183,17.2005 62.4463,18.1535 62.5473,19.0845 C62.8793,22.1615 63.4143,23.8925 64.0143,24.9645 C64.6173,26.0345 65.5533,25.8355 65.5533,25.8355 C65.5533,25.8355 66.7563,25.3665 65.9573,24.0265 C65.1543,22.6925 64.9493,21.7565 64.8853,20.2215 C64.8383,19.1365 64.6623,17.7825 64.6073,16.3325 C65.7743,16.2985 66.7713,16.1415 67.2933,15.8135 C68.0753,15.3185 68.7003,14.6695 68.8673,13.6865 C69.1183,13.7465 69.4283,14.0025 69.6993,14.2715 C70.0323,14.6105 70.7663,14.4055 70.9033,13.9395 C71.0333,13.4725 70.5023,12.8705 70.3683,12.3325 C70.2313,11.8005 70.6293,11.8655 71.8383,12.3965 C71.9413,12.4425 72.0373,12.4835 72.1353,12.5255 C72.1033,12.6155 72.0723,12.7015 72.0373,12.8005 C71.5713,14.1415 71.0333,14.4735 70.5023,14.8095 C69.9643,15.1385 70.5673,15.7455 71.5713,15.3435 C72.2173,15.0845 73.0023,14.2365 73.8023,13.1125 C74.3113,13.2595 74.8893,13.4095 75.6473,13.6065 C76.1653,13.7405 76.6663,13.8565 77.1533,13.9575 C76.8033,14.1895 76.2543,14.5285 75.4793,14.9515 C75.1233,14.7615 74.7983,14.6475 74.5773,14.6725 C74.1513,14.7275 73.9423,15.0835 73.9043,15.8935 C73.1893,16.3695 72.5413,16.8605 71.3723,17.6105 C69.5013,18.8195 69.0973,18.6825 68.2913,19.0845 C67.4923,19.4885 67.3593,20.1535 67.8913,20.6255 C68.4223,21.0885 69.8303,20.7595 71.6333,20.6255 C72.7423,20.5425 73.5963,20.4345 74.3383,20.2565 C74.4943,20.6995 74.6783,21.1405 74.9123,21.7565 C75.3143,22.8305 75.4453,23.4985 75.5813,23.7655 C75.7113,24.0265 76.3803,24.4995 76.3803,23.5635 C76.3803,22.8005 75.9803,21.1125 75.6523,19.8225 C76.7173,19.3505 77.0493,19.3485 77.3843,18.4155 C77.7203,17.4795 77.7203,16.8115 76.9803,16.0785 C76.7213,15.8185 76.4103,15.5595 76.0943,15.3345 C76.4053,15.1765 76.7123,15.0095 76.9803,14.8095 C77.4593,14.4515 77.8473,14.2465 78.0983,14.1285 C78.9233,14.2505 79.6633,14.2795 80.2563,14.1415 C81.3913,13.8745 81.7303,13.0685 81.0593,12.6675" id="Fill-193" fill="#050001" mask="url(#mask-2)"></path>
                    <path d="M75.7769,23.3613 C75.7769,23.3613 75.1769,23.2963 74.3099,23.4983 C73.4429,23.7003 73.4429,24.2973 73.7039,24.6983 C73.9739,25.0983 74.6459,25.0303 75.9789,24.8963 C77.3159,24.7623 78.0489,24.8323 78.7899,24.8323 C79.5259,24.8323 79.7909,24.3623 79.5259,23.8273 C79.2589,23.2963 77.4529,23.1003 75.7769,23.3613" id="Fill-194" fill="#050001" mask="url(#mask-2)"></path>
                    <path d="M90.8267,14.8516 C91.9867,15.2886 94.9637,17.0336 96.6297,17.9006 C98.3027,18.7706 99.3877,19.6376 99.8247,20.5116 C100.2587,21.3786 100.6267,22.2556 98.8797,22.9086 C97.4977,23.4246 94.0177,25.1746 91.3317,26.3486 C91.1947,25.5166 91.0717,24.7836 90.9697,24.2146 C90.4647,21.3786 90.0237,18.1156 89.9527,16.7366 C89.8817,15.3576 89.6657,14.4176 90.8267,14.8516 M101.5687,42.7886 C100.9847,42.3516 100.1177,42.1396 98.1517,41.3376 C96.7587,40.7686 94.7057,40.0566 93.6367,39.6926 C93.4877,38.9836 93.3447,38.2886 93.2197,37.6376 C93.0217,36.6106 92.8037,35.3546 92.5797,34.0186 C96.5687,32.3116 99.8497,31.1556 101.7837,29.2946 C103.7437,27.4076 105.4097,24.9396 104.7577,22.1806 C104.1047,19.4226 103.2347,17.2476 99.4627,14.5586 C95.6867,11.8846 91.8437,10.0696 90.3177,9.8506 C88.7917,9.6356 86.1837,10.5786 85.3817,12.9636 C84.5897,15.3576 84.7987,17.8286 85.2387,20.5826 C85.5667,22.6646 86.0197,25.7016 86.4437,28.1586 C84.6137,28.7776 82.5677,29.4616 80.0877,30.3806 C76.1647,31.8336 73.4107,32.4866 73.4107,32.4866 C73.4107,32.4866 72.0277,33.2136 71.3757,33.1356 C70.7227,33.0706 68.7617,31.3226 66.5177,32.0466 C64.2627,32.7766 63.4667,34.9546 63.7537,37.1286 C64.0507,39.3036 65.2787,40.1806 67.9657,40.9016 C70.6517,41.6316 73.5567,40.3276 77.9777,39.0916 C80.8027,38.3046 84.2407,37.1936 87.4187,36.0396 C86.9207,36.8726 86.2097,37.9566 85.2387,39.1636 C83.1327,41.7716 80.9577,43.9536 79.0697,46.1266 C77.1797,48.3056 77.3287,48.9606 76.7457,48.8106 C76.1647,48.6696 76.4587,48.2306 75.9497,47.0006 C75.4377,45.7616 75.2227,45.5466 74.7147,45.8366 C74.2097,46.1266 74.4987,47.1446 74.7857,48.0186 C75.0797,48.8856 74.9297,50.3356 76.9677,50.9166 C78.9947,51.4996 80.6647,50.3356 82.3407,49.3266 C84.0027,48.3056 85.5997,47.0006 86.6177,45.4756 C87.7117,44.0896 88.4097,43.2056 88.8587,42.6396 C88.8867,42.7656 88.9127,42.8956 88.9387,43.0076 C89.5947,45.8366 90.6807,50.5546 91.6217,52.1526 C92.5667,53.7496 93.5097,53.9686 94.7447,53.3846 C95.9767,52.8046 96.0527,51.8626 95.6187,49.1726 C95.4687,48.2576 95.2227,47.0526 94.9397,45.7276 C96.4597,46.3406 98.1007,46.9186 99.6787,46.8516 C101.3477,46.7826 101.8557,46.1266 102.5827,45.1856 C103.3097,44.2436 103.3097,44.3866 102.8727,43.8806 C102.4357,43.3696 102.1457,43.2226 101.5687,42.7886" id="Fill-195" fill="#050001" mask="url(#mask-2)"></path>
                    <path d="M132.0591,19.5889 C132.6811,20.3649 132.9161,20.8309 132.7591,21.3009 C132.6431,21.6399 132.2001,21.8549 131.5791,22.0349 C131.3791,20.7849 131.2641,19.7719 131.1221,19.1189 C130.8951,18.0299 131.4391,18.8139 132.0591,19.5889 M137.9691,47.6599 C136.9551,43.9239 134.2371,34.3579 133.6951,31.3259 C133.4581,30.0129 133.2511,29.1119 133.0411,28.2979 C135.2251,27.2869 136.5941,26.1369 137.0371,24.8769 C137.5791,23.3219 137.9691,22.4649 135.9481,18.6559 C133.9231,14.8489 131.5171,11.4289 130.3471,9.6429 C129.1831,7.8619 128.5631,6.3849 126.3821,7.0049 C124.2051,7.6269 124.3611,9.9549 124.4401,11.8989 C124.5011,13.4269 125.8141,19.6299 126.6361,23.3359 C124.5161,23.8989 120.6111,24.9449 117.5961,25.8099 C113.2471,27.0549 106.5571,28.8419 103.7601,29.8489 C100.9591,30.8629 98.7041,31.9449 97.7671,33.2759 C96.8381,34.5959 97.0771,36.4609 97.7671,37.2399 C98.4681,38.0159 99.9491,38.5609 102.9031,37.6209 C105.8561,36.6929 116.6661,33.3509 120.5531,32.1839 C123.2161,31.3879 125.7921,30.7319 128.1861,30.0229 C129.0321,33.6129 130.1341,38.2289 130.7421,40.5069 C131.6701,44.0049 133.6101,50.2229 134.2371,52.7129 C134.8591,55.1999 135.5571,57.4569 135.8701,58.4639 C136.1761,59.4789 136.1011,59.8659 134.1551,58.4639 C132.2181,57.0659 126.6921,53.0199 125.9161,52.5539 C125.1401,52.0869 124.9841,52.8689 125.2971,53.4889 C125.6061,54.1109 126.6921,54.8879 128.5631,56.0519 C130.4281,57.2219 135.3251,61.6499 136.7271,62.4289 C138.1251,63.2039 141.1551,63.9839 141.3111,60.8019 C141.4671,57.6099 138.9801,51.3859 137.9691,47.6599" id="Fill-196" fill="#050001" mask="url(#mask-2)"></path>
                    <path d="M126.5454,41.4062 C126.5454,41.4062 128.4234,43.2812 128.3354,45.7952 C128.2544,48.3052 126.8094,52.4622 125.9974,53.3092 C125.1794,54.1572 120.6804,56.8072 118.4004,57.2282 C116.1194,57.6552 113.5964,58.2682 110.9164,56.5472 C108.2294,54.8262 106.9614,51.7312 106.4594,49.0492 C105.9604,46.3652 106.3844,44.2042 107.4104,41.5172 C108.4324,38.8242 111.1954,36.5032 112.8294,36.3402 C114.4634,36.1742 116.6954,35.9712 118.7144,36.8712 C120.7334,37.7742 122.4994,37.5862 123.8224,38.7232 C125.1494,39.8642 126.5454,41.4062 126.5454,41.4062" id="Fill-197" fill="#FEFEFE" mask="url(#mask-2)"></path>
                    <path d="M120.7876,36.0566 C120.7876,36.0566 121.2406,36.6566 121.7006,36.8266 C122.1636,36.9986 123.1876,36.5456 124.6286,37.3896 C126.0696,38.2316 128.3066,41.0646 128.7686,42.1756 C129.2316,43.2846 129.9726,46.3096 129.1436,49.2046 C128.3186,52.0936 127.2206,55.3796 122.9786,56.9456 C118.7406,58.5066 115.1866,59.1646 113.1786,58.9466 C111.1706,58.7216 107.5286,57.0916 106.0456,52.8336 C104.5676,48.5786 103.8536,42.4726 107.7116,38.8436 C111.5676,35.2156 113.8136,34.8826 116.7616,35.0976 C116.7616,35.0976 117.3516,35.0756 117.9286,35.3946 C118.4996,35.7106 119.3566,35.7276 119.9146,35.9646 C120.4716,36.2026 121.5576,37.4486 121.8966,37.9016 C122.2416,38.3486 122.2676,38.9486 120.4166,38.1786 C118.5606,37.4126 116.7346,36.8166 115.2486,37.0896 C113.7626,37.3696 112.2266,37.4036 111.1956,38.2766 C110.1596,39.1536 109.3246,40.1636 109.0546,40.9866 C108.7766,41.8076 108.3956,42.3906 107.8906,43.0006 C107.3816,43.6106 106.5626,48.7186 108.3986,51.7116 C110.2446,54.7026 112.8716,57.2936 116.1356,56.9356 C119.4086,56.5826 122.6686,55.7156 124.5306,52.8886 C126.3946,50.0626 126.1416,49.1656 126.2196,48.6376 C126.2876,48.1136 126.8676,46.6396 126.6666,45.5606 C126.4636,44.4876 126.1606,42.4046 124.6966,40.9696 C123.2296,39.5326 122.4636,39.0786 121.7426,38.8696 C121.0186,38.6646 118.7146,36.8706 118.7146,36.8706 C118.7146,36.8706 118.1856,35.4306 120.7876,36.0566" id="Fill-198" fill="#080203" mask="url(#mask-2)"></path>
                    <path d="M111.5649,45.7363 C111.5649,45.7363 111.9399,43.6133 113.4289,42.9033 C114.9169,42.2053 116.6959,42.5533 117.5859,43.1503 C118.4629,43.7603 119.3399,44.7913 119.3889,46.4083 C119.4319,48.0243 118.8149,49.7653 117.4919,50.4403 C116.1589,51.1193 114.3949,51.2783 113.6119,50.7443 C112.8269,50.2033 111.6879,48.7063 111.6949,47.3373 C111.6949,47.3373 112.2129,47.8323 112.7189,48.2533 C113.2239,48.6743 114.6449,48.4943 115.1309,47.8913 C115.6179,47.2813 115.7989,45.9673 115.2129,45.1363 C114.6319,44.3013 114.2019,44.3013 113.5409,44.4223 C112.8809,44.5463 110.5809,46.4303 113.0899,48.8693 C113.0899,48.8693 111.1859,48.2853 111.5649,45.7363" id="Fill-199" fill="#080203" mask="url(#mask-2)"></path>
                </g>
            </g>
        </g>
    </g>
</svg>